<svg preserveAspectRatio="none" overflow="visible" style="display: block;" width="20" height="20" viewBox="0 0 20 20" fill="none" xmlns="http://www.w3.org/2000/svg">
<g id="20&#195;&#151;20 / Problem_20">
<g id="Union">
<path d="M8.62256 8.49482C8.55543 7.69014 9.19112 7 9.99944 7C10.8078 7 11.4435 7.69014 11.3763 8.49482L11.077 12.083C11.0338 12.6013 10.6 13 10.0794 13H9.91949C9.39885 13 8.96513 12.6013 8.92189 12.083L8.62256 8.49482Z" fill="#DBD9E0"/>
<path d="M10.9994 15.0002C10.9994 15.5525 10.5512 16.0002 9.99833 16.0002C9.44546 16.0002 8.99728 15.5525 8.99728 15.0002C8.99728 14.4479 9.44546 14.0002 9.99833 14.0002C10.5512 14.0002 10.9994 14.4479 10.9994 15.0002Z" fill="#DBD9E0"/>
<path fill-rule="evenodd" clip-rule="evenodd" d="M12.3686 3.46394C11.1796 1.88377 8.81643 1.88377 7.62737 3.46394C6.44854 5.03051 4.83464 7.2119 3.66342 8.93903C2.59073 10.5209 1.45149 12.6172 0.441139 14.2668C-0.715722 16.1557 0.52397 18.5918 2.75358 18.7341C4.79039 18.8641 7.37341 18.9999 9.998 18.9999C12.6226 18.9999 15.2097 18.8641 17.2465 18.7341C19.4761 18.5918 20.7158 16.1557 19.5589 14.2668C18.5486 12.6172 17.4053 10.5209 16.3326 8.93903C15.1614 7.2119 13.5475 5.03051 12.3686 3.46394ZM9.22774 4.66567C9.61589 4.14985 10.3801 4.14985 10.7683 4.66567C11.9447 6.22907 13.5333 8.37714 14.675 10.0607C15.7201 11.6019 16.8433 13.6651 17.8511 15.3106C18.2305 15.93 17.8267 16.693 17.1188 16.7382C15.1018 16.867 12.5621 16.9999 9.998 16.9999C7.4339 16.9999 4.89825 16.867 2.88128 16.7382C2.17333 16.693 1.7696 15.93 2.14896 15.3106C3.1568 13.6651 4.27586 11.6019 5.321 10.0607C6.4627 8.37714 8.0513 6.22907 9.22774 4.66567Z" fill="#DBD9E0"/>
</g>
</g>
</svg>
