<svg preserveAspectRatio="none" overflow="visible" style="display: block;" width="19.9996" height="15.001" viewBox="0 0 19.9996 15.001" fill="none" xmlns="http://www.w3.org/2000/svg">
<path id="Union" d="M9.99976 15.001C6.88976 15.001 4.46875 13.526 0.74775 9.36395C-0.24925 8.24895 -0.24925 6.75099 0.74775 5.63599C4.46875 1.47499 6.88976 0 9.99976 0C13.1098 0 15.5308 1.47496 19.2518 5.63696C20.2488 6.74996 20.2488 8.24795 19.2528 9.36395C15.5308 13.526 13.1098 15.001 9.99976 15.001ZM9.99976 2.00098C7.55176 2.00098 5.52078 3.30197 2.23878 6.96997C1.91578 7.33197 1.91575 7.66998 2.23975 8.03198C5.51975 11.7 7.55176 13.001 9.99976 13.001C12.4478 13.001 14.4788 11.7 17.7607 8.03198C18.0837 7.66998 18.0837 7.33197 17.7607 6.96997C14.4788 3.30197 12.4478 2.00098 9.99976 2.00098ZM9.99976 10.501C8.34576 10.501 6.99976 9.15498 6.99976 7.50098C6.99976 5.84698 8.34576 4.50098 9.99976 4.50098C11.6538 4.50098 12.9998 5.84698 12.9998 7.50098C12.9998 9.15498 11.6538 10.501 9.99976 10.501ZM9.99976 6.50098C9.44776 6.50098 8.99976 6.94898 8.99976 7.50098C8.99976 8.05298 9.44776 8.50098 9.99976 8.50098C10.5518 8.50098 10.9998 8.05298 10.9998 7.50098C10.9998 6.94898 10.5518 6.50098 9.99976 6.50098Z" fill="white"/>
</svg>
