<svg preserveAspectRatio="none" overflow="visible" style="display: block;" width="20" height="20" viewBox="0 0 20 20" fill="none" xmlns="http://www.w3.org/2000/svg">
<g id="player_volumeMin">
<g id="Union">
<path fill-rule="evenodd" clip-rule="evenodd" d="M9.10191 1C8.4513 1 7.82733 1.25846 7.36728 1.71851L4.7461 4.33969C4.59872 4.48706 4.40898 4.58471 4.20339 4.61897L2.69028 4.87116C1.88978 5.00458 1.06083 5.48815 0.688011 6.39118C0.36694 7.16886 0 8.40638 0 10C0 11.5936 0.36694 12.8311 0.688011 13.6088C1.06083 14.5118 1.88978 14.9954 2.69028 15.1288L4.20339 15.381C4.40898 15.4153 4.59872 15.5129 4.7461 15.6603L7.36728 18.2815C7.82733 18.7415 8.4513 19 9.10191 19C10.0243 19 10.9698 18.4536 11.2536 17.4166C11.5771 16.2345 12 13.9376 12 10C12 6.06241 11.5771 3.7655 11.2536 2.5834C10.9698 1.5464 10.0243 1 9.10191 1ZM8.78149 3.13272C8.86647 3.04774 8.98173 3 9.10191 3C9.18751 3 9.24632 3.0247 9.27762 3.0464C9.30402 3.06471 9.31691 3.08344 9.32455 3.11138C9.59172 4.08751 10 6.2018 10 10C10 13.7982 9.59172 15.9125 9.32455 16.8886C9.31691 16.9166 9.30402 16.9353 9.27762 16.9536C9.24632 16.9753 9.18751 17 9.10191 17C8.98173 17 8.86647 16.9523 8.78149 16.8673L6.16031 14.2461C5.71818 13.804 5.14895 13.511 4.53219 13.4082L3.01907 13.1561C2.72898 13.1077 2.58576 12.9645 2.53666 12.8456C2.29537 12.2612 2 11.2837 2 10C2 8.71631 2.29537 7.73882 2.53666 7.1544C2.58576 7.03545 2.72898 6.8923 3.01907 6.84395L4.53219 6.59176C5.14895 6.48897 5.71818 6.19603 6.16031 5.7539L8.78149 3.13272Z" fill="#DBD9E0"/>
<path d="M14.7071 6.29289C14.3166 5.90237 13.6834 5.90237 13.2929 6.29289C12.9057 6.68007 12.9024 7.30574 13.2829 7.697L13.2904 7.70538C13.3022 7.7189 13.3253 7.7463 13.3562 7.7875C13.4182 7.87004 13.5103 8.00672 13.6056 8.19721C13.7944 8.57493 14 9.17276 14 10C14 10.8272 13.7944 11.4251 13.6056 11.8028C13.5103 11.9933 13.4182 12.13 13.3562 12.2125C13.3253 12.2537 13.3022 12.2811 13.2904 12.2946L13.2829 12.303C12.9024 12.6943 12.9057 13.3199 13.2929 13.7071C13.6834 14.0976 14.3173 14.0969 14.7078 13.7064C14.7985 13.6155 14.8793 13.5151 14.9563 13.4125C15.0818 13.245 15.2397 13.0067 15.3944 12.6972C15.7056 12.0749 16 11.1728 16 10C16 8.82724 15.7056 7.92507 15.3944 7.30279C15.2397 6.99328 15.0818 6.75496 14.9563 6.5875C14.8791 6.4846 14.7981 6.38403 14.7071 6.29289Z" fill="#DBD9E0"/>
</g>
</g>
</svg>
